<svg width="49" height="50" viewBox="0 0 49 50" fill="none" xmlns="http://www.w3.org/2000/svg">
<path d="M46.8145 19.5488L43.1641 18.7373L34.9492 16.9121L29.2217 15.6387L33.6064 11.7412L35.6025 9.96582C32.4128 7.6019 28.4646 6.20315 24.1895 6.20312C13.5915 6.20312 5.00012 14.7947 5 25.3926C5.00006 35.9905 13.5915 44.582 24.1895 44.582C34.7727 44.582 43.3542 36.0142 43.3779 25.4365H48.3779L48.3711 26.0166C48.0401 39.0875 37.3401 49.582 24.1895 49.582L23.5654 49.5742C10.7018 49.2485 0.333607 38.8802 0.0078125 26.0166L0 25.3926C0.00011893 12.0333 10.8301 1.20312 24.1895 1.20312L24.8135 1.21094C30.3359 1.3508 35.3971 3.34328 39.4023 6.58789L41.8213 4.43848L46.8145 0V19.5488Z" fill="#7022C3"/>
</svg>
